M48
INCH,TZ
T1C0.0118
T2C0.0300
T3C0.0320
T4C0.0339
T5C0.0354
T6C0.0390
T7C0.0400
T8C0.0433
T9C0.0472
T10C0.0551
T11C0.0590
T12C0.0670
%
G90
G05
T1
X58465Y-18996
X58465Y-19488
X58465Y-19980
X58465Y-20472
X58465Y-20965
X58465Y-21457
X58465Y-21949
X58957Y-22146
X59449Y-22146
X59941Y-22146
X59941Y-22638
X61319Y-22146
X61319Y-22638
X61811Y-22146
X62303Y-22146
X62795Y-18996
X62795Y-19488
X62795Y-19980
X62795Y-20472
X62795Y-20965
X62795Y-21457
X62795Y-21949
T2
X52756Y-28740
X52756Y-29740
X52756Y-30740
X55756Y-28740
X55756Y-29740
X55756Y-30740
X61417Y-28740
X61417Y-29740
X61417Y-30740
X64417Y-28740
X64417Y-29740
X64417Y-30740
X48425Y-28709
X48425Y-29709
X48425Y-30709
X51425Y-28709
X51425Y-29709
X51425Y-30709
X57087Y-28740
X57087Y-29740
X57087Y-30740
X60087Y-28740
X60087Y-29740
X60087Y-30740
T3
X47937Y-23228
X47937Y-26228
X48937Y-23228
X48937Y-26228
X49937Y-23228
X49937Y-26228
X50937Y-23228
X50937Y-26228
X51937Y-23228
X51937Y-26228
X52937Y-23228
X52937Y-26228
X53937Y-23228
X53937Y-26228
X54937Y-23228
X54937Y-26228
X55937Y-23228
X55937Y-26228
T4
X60197Y-50512
X60197Y-53543
X62205Y-50512
X62205Y-53543
T5
X58661Y-25220
X58661Y-26220
T6
X60205Y-48819
X61205Y-48819
X62205Y-48819
X60827Y-25394
X60827Y-27165
X63386Y-25394
X63386Y-27165
T7
X60630Y-23622
X61630Y-23722
X62630Y-23622
X63630Y-23722
X49937Y-20079
X50937Y-20179
X51937Y-20079
X52937Y-20179
X53937Y-20079
X54937Y-20179
X55937Y-20079
X56937Y-20179
T8
X57087Y-49543
X57087Y-53543
T9
X50000Y-41142
X50000Y-44094
X57480Y-36417
X57480Y-42417
X50000Y-47543
X50000Y-53543
X62205Y-34055
X62205Y-37008
X52362Y-47543
X52362Y-53543
X47638Y-47543
X47638Y-53543
X62205Y-41142
X62205Y-44094
X54724Y-47543
X54724Y-53543
X50000Y-34055
X50000Y-37008
T10
X50394Y-56004
X52362Y-56004
X54331Y-56004
X56299Y-56004
X58268Y-56004
X60236Y-56004
X62205Y-56004
X64173Y-56004
T11
X60630Y-20374
T12
X59630Y-19374
X59630Y-21374
X61630Y-19374
X61630Y-21374
T0
M30
