G04 #@! TF.GenerationSoftware,KiCad,Pcbnew,(5.1.7)-1*
G04 #@! TF.CreationDate,2021-01-27T13:10:38-08:00*
G04 #@! TF.ProjectId,rx,72782e6b-6963-4616-945f-706362585858,rev?*
G04 #@! TF.SameCoordinates,Original*
G04 #@! TF.FileFunction,Soldermask,Top*
G04 #@! TF.FilePolarity,Negative*
%FSLAX46Y46*%
G04 Gerber Fmt 4.6, Leading zero omitted, Abs format (unit mm)*
G04 Created by KiCad (PCBNEW (5.1.7)-1) date 2021-01-27 13:10:38*
%MOMM*%
%LPD*%
G01*
G04 APERTURE LIST*
%ADD10C,3.200000*%
%ADD11C,1.524000*%
%ADD12R,1.524000X1.524000*%
%ADD13R,1.295400X1.295400*%
%ADD14C,1.295400*%
%ADD15C,1.498600*%
%ADD16R,1.498600X1.498600*%
%ADD17C,2.400000*%
%ADD18O,2.400000X2.400000*%
%ADD19C,2.082800*%
%ADD20C,1.270000*%
%ADD21C,2.209800*%
%ADD22C,2.006600*%
%ADD23C,2.100000*%
%ADD24R,2.100000X2.100000*%
%ADD25C,1.210000*%
%ADD26R,1.210000X1.210000*%
%ADD27R,1.800000X1.800000*%
%ADD28C,1.800000*%
G04 APERTURE END LIST*
D10*
X160000000Y-136000000D03*
X117000000Y-145000000D03*
X160000000Y-53000000D03*
X117000000Y-53000000D03*
D11*
X129120000Y-64000000D03*
X129120000Y-66540000D03*
X129120000Y-69080000D03*
X129120000Y-71620000D03*
X129120000Y-74160000D03*
X129120000Y-76700000D03*
X129120000Y-79240000D03*
X129120000Y-81780000D03*
X129120000Y-84320000D03*
X121500000Y-84320000D03*
X121500000Y-81780000D03*
X121500000Y-79240000D03*
X121500000Y-76700000D03*
X121500000Y-74160000D03*
X121500000Y-71620000D03*
X121500000Y-69080000D03*
X121500000Y-66540000D03*
D12*
X121500000Y-64000000D03*
D13*
X137440000Y-102980000D03*
D14*
X134900000Y-102980000D03*
X132360000Y-102980000D03*
X129820000Y-102980000D03*
X127280000Y-102980000D03*
X124740000Y-102980000D03*
X122200000Y-102980000D03*
X119660000Y-102980000D03*
X119660000Y-110600000D03*
X122200000Y-110600000D03*
X124740000Y-110600000D03*
X127280000Y-110600000D03*
X129820000Y-110600000D03*
X132360000Y-110600000D03*
X134900000Y-110600000D03*
X137440000Y-110600000D03*
D15*
X157000001Y-66499999D03*
X157000001Y-71000000D03*
X150499999Y-71000000D03*
D16*
X150499999Y-66499999D03*
D17*
X145000000Y-61000000D03*
D18*
X160240000Y-61000000D03*
D19*
X135500000Y-86700000D03*
X135246000Y-61300000D03*
X135500000Y-53680000D03*
X135500000Y-91780000D03*
X135246000Y-89240000D03*
G36*
G01*
X136185800Y-95361400D02*
X134306200Y-95361400D01*
G75*
G02*
X134204600Y-95259800I0J101600D01*
G01*
X134204600Y-93380200D01*
G75*
G02*
X134306200Y-93278600I101600J0D01*
G01*
X136185800Y-93278600D01*
G75*
G02*
X136287400Y-93380200I0J-101600D01*
G01*
X136287400Y-95259800D01*
G75*
G02*
X136185800Y-95361400I-101600J0D01*
G01*
G37*
X135500000Y-58760000D03*
X135246000Y-56220000D03*
D20*
X143920000Y-119380000D03*
X143920000Y-124460000D03*
X143920000Y-127000000D03*
X143920000Y-129540000D03*
X149000000Y-129540000D03*
X149000000Y-127000000D03*
X149000000Y-124460000D03*
X149000000Y-119380000D03*
X134920000Y-119380000D03*
X134920000Y-124460000D03*
X134920000Y-127000000D03*
X134920000Y-129540000D03*
X140000000Y-129540000D03*
X140000000Y-127000000D03*
X140000000Y-124460000D03*
X140000000Y-119380000D03*
X125920000Y-119380000D03*
X125920000Y-124460000D03*
X125920000Y-127000000D03*
X125920000Y-129540000D03*
X131000000Y-129540000D03*
X131000000Y-127000000D03*
X131000000Y-124460000D03*
X131000000Y-119380000D03*
X116920000Y-119380000D03*
X116920000Y-124460000D03*
X116920000Y-127000000D03*
X116920000Y-129540000D03*
X122000000Y-129540000D03*
X122000000Y-127000000D03*
X122000000Y-124460000D03*
X122000000Y-119380000D03*
D21*
X152540000Y-51210000D03*
X152540000Y-56290000D03*
X147460000Y-56290000D03*
X147460000Y-51210000D03*
D22*
X150000000Y-53750000D03*
D19*
X116123000Y-89380000D03*
X116377000Y-86840000D03*
X116123000Y-84300000D03*
X116377000Y-81760000D03*
X116123000Y-79220000D03*
X116377000Y-76680000D03*
X116123000Y-74140000D03*
X116377000Y-71600000D03*
D15*
X153920000Y-114000000D03*
X156460000Y-114000000D03*
X159000000Y-114000000D03*
D23*
X124000000Y-144000000D03*
X129000000Y-144000000D03*
X134000000Y-144000000D03*
X139000000Y-144000000D03*
X144000000Y-144000000D03*
X149000000Y-144000000D03*
X154000000Y-144000000D03*
D24*
X159000000Y-144000000D03*
D25*
X159100000Y-127000000D03*
X154000000Y-127000000D03*
X154000000Y-119300000D03*
D26*
X159100000Y-119300000D03*
D27*
X145000000Y-66000000D03*
D28*
X145000000Y-68540000D03*
M02*
