M48
INCH,TZ
T1C0.0118
T2C0.0300
T3C0.0310
T4C0.0320
T5C0.0339
T6C0.0354
T7C0.0390
T8C0.0400
T9C0.0472
T10C0.0551
T11C0.0590
T12C0.0670
%
G90
G05
T1
X54134Y-20374
X54134Y-21949
X54528Y-20374
X54528Y-21949
X54921Y-20374
X54921Y-21949
X55315Y-20374
X55315Y-21949
X55709Y-20374
X55709Y-21949
X56102Y-20374
X56102Y-21949
X56496Y-20374
X56496Y-21949
X56890Y-19587
X56890Y-19980
X56890Y-20374
X56890Y-21949
X56890Y-22343
X56890Y-22736
X57283Y-22933
X57677Y-22933
X58071Y-22933
X58465Y-22933
X58858Y-22933
X59252Y-22933
X59646Y-22933
X60039Y-22933
X60433Y-22933
X60827Y-22933
X61220Y-19587
X61220Y-19980
X61220Y-20374
X61220Y-20768
X61220Y-21161
X61220Y-21555
X61220Y-21949
X61220Y-22343
X61220Y-22736
T2
X53118Y-47000
X53118Y-49000
X53118Y-50000
X53118Y-51000
X55118Y-47000
X55118Y-49000
X55118Y-50000
X55118Y-51000
X46031Y-47000
X46031Y-49000
X46031Y-50000
X46031Y-51000
X48031Y-47000
X48031Y-49000
X48031Y-50000
X48031Y-51000
X49575Y-47000
X49575Y-49000
X49575Y-50000
X49575Y-51000
X51575Y-47000
X51575Y-49000
X51575Y-50000
X51575Y-51000
X56661Y-47000
X56661Y-49000
X56661Y-50000
X56661Y-51000
X58661Y-47000
X58661Y-49000
X58661Y-50000
X58661Y-51000
T3
X47110Y-40543
X47110Y-43543
X48110Y-40543
X48110Y-43543
X49110Y-40543
X49110Y-43543
X50110Y-40543
X50110Y-43543
X51110Y-40543
X51110Y-43543
X52110Y-40543
X52110Y-43543
X53110Y-40543
X53110Y-43543
X54110Y-40543
X54110Y-43543
T4
X47835Y-25197
X47835Y-26197
X47835Y-27197
X47835Y-28197
X47835Y-29197
X47835Y-30197
X47835Y-31197
X47835Y-32197
X47835Y-33197
X50835Y-25197
X50835Y-26197
X50835Y-27197
X50835Y-28197
X50835Y-29197
X50835Y-30197
X50835Y-31197
X50835Y-32197
X50835Y-33197
T5
X60630Y-46969
X60630Y-50000
X62638Y-46969
X62638Y-50000
T6
X57087Y-25984
X57087Y-26984
T7
X59252Y-26181
X59252Y-27953
X61811Y-26181
X61811Y-27953
X60598Y-44882
X61598Y-44882
X62598Y-44882
T8
X45718Y-29189
X45718Y-31189
X45718Y-33189
X45718Y-35189
X45818Y-28189
X45818Y-30189
X45818Y-32189
X45818Y-34189
X53246Y-22134
X53246Y-24134
X53246Y-35134
X53246Y-37134
X53346Y-21134
X53346Y-23134
X53346Y-34134
X53346Y-36134
T9
X57087Y-24016
X63087Y-24016
T10
X48819Y-56693
X50787Y-56693
X52756Y-56693
X54724Y-56693
X56693Y-56693
X58661Y-56693
X60630Y-56693
X62598Y-56693
T11
X59055Y-21161
T12
X58055Y-20161
X58055Y-22161
X60055Y-20161
X60055Y-22161
T0
M30
