G04 #@! TF.GenerationSoftware,KiCad,Pcbnew,(5.1.7)-1*
G04 #@! TF.CreationDate,2021-01-27T13:10:38-08:00*
G04 #@! TF.ProjectId,rx,72782e6b-6963-4616-945f-706362585858,rev?*
G04 #@! TF.SameCoordinates,Original*
G04 #@! TF.FileFunction,Copper,L1,Top*
G04 #@! TF.FilePolarity,Positive*
%FSLAX46Y46*%
G04 Gerber Fmt 4.6, Leading zero omitted, Abs format (unit mm)*
G04 Created by KiCad (PCBNEW (5.1.7)-1) date 2021-01-27 13:10:38*
%MOMM*%
%LPD*%
G01*
G04 APERTURE LIST*
G04 #@! TA.AperFunction,ComponentPad*
%ADD10C,1.524000*%
G04 #@! TD*
G04 #@! TA.AperFunction,ComponentPad*
%ADD11R,1.524000X1.524000*%
G04 #@! TD*
G04 #@! TA.AperFunction,ComponentPad*
%ADD12R,1.295400X1.295400*%
G04 #@! TD*
G04 #@! TA.AperFunction,ComponentPad*
%ADD13C,1.295400*%
G04 #@! TD*
G04 #@! TA.AperFunction,ComponentPad*
%ADD14C,1.498600*%
G04 #@! TD*
G04 #@! TA.AperFunction,ComponentPad*
%ADD15R,1.498600X1.498600*%
G04 #@! TD*
G04 #@! TA.AperFunction,ComponentPad*
%ADD16C,2.400000*%
G04 #@! TD*
G04 #@! TA.AperFunction,ComponentPad*
%ADD17O,2.400000X2.400000*%
G04 #@! TD*
G04 #@! TA.AperFunction,ComponentPad*
%ADD18C,1.879600*%
G04 #@! TD*
G04 #@! TA.AperFunction,ComponentPad*
%ADD19R,1.879600X1.879600*%
G04 #@! TD*
G04 #@! TA.AperFunction,ComponentPad*
%ADD20C,1.270000*%
G04 #@! TD*
G04 #@! TA.AperFunction,ComponentPad*
%ADD21C,2.209800*%
G04 #@! TD*
G04 #@! TA.AperFunction,ComponentPad*
%ADD22C,2.006600*%
G04 #@! TD*
G04 #@! TA.AperFunction,ComponentPad*
%ADD23C,2.100000*%
G04 #@! TD*
G04 #@! TA.AperFunction,ComponentPad*
%ADD24R,2.100000X2.100000*%
G04 #@! TD*
G04 #@! TA.AperFunction,ComponentPad*
%ADD25C,1.210000*%
G04 #@! TD*
G04 #@! TA.AperFunction,ComponentPad*
%ADD26R,1.210000X1.210000*%
G04 #@! TD*
G04 #@! TA.AperFunction,ComponentPad*
%ADD27R,1.800000X1.800000*%
G04 #@! TD*
G04 #@! TA.AperFunction,ComponentPad*
%ADD28C,1.800000*%
G04 #@! TD*
G04 #@! TA.AperFunction,ViaPad*
%ADD29C,0.600000*%
G04 #@! TD*
G04 #@! TA.AperFunction,Conductor*
%ADD30C,0.250000*%
G04 #@! TD*
G04 #@! TA.AperFunction,Conductor*
%ADD31C,0.500000*%
G04 #@! TD*
G04 APERTURE END LIST*
D10*
X129120000Y-64000000D03*
X129120000Y-66540000D03*
X129120000Y-69080000D03*
X129120000Y-71620000D03*
X129120000Y-74160000D03*
X129120000Y-76700000D03*
X129120000Y-79240000D03*
X129120000Y-81780000D03*
X129120000Y-84320000D03*
X121500000Y-84320000D03*
X121500000Y-81780000D03*
X121500000Y-79240000D03*
X121500000Y-76700000D03*
X121500000Y-74160000D03*
X121500000Y-71620000D03*
X121500000Y-69080000D03*
X121500000Y-66540000D03*
D11*
X121500000Y-64000000D03*
D12*
X137440000Y-102980000D03*
D13*
X134900000Y-102980000D03*
X132360000Y-102980000D03*
X129820000Y-102980000D03*
X127280000Y-102980000D03*
X124740000Y-102980000D03*
X122200000Y-102980000D03*
X119660000Y-102980000D03*
X119660000Y-110600000D03*
X122200000Y-110600000D03*
X124740000Y-110600000D03*
X127280000Y-110600000D03*
X129820000Y-110600000D03*
X132360000Y-110600000D03*
X134900000Y-110600000D03*
X137440000Y-110600000D03*
D14*
X157000001Y-66499999D03*
X157000001Y-71000000D03*
X150499999Y-71000000D03*
D15*
X150499999Y-66499999D03*
D16*
X145000000Y-61000000D03*
D17*
X160240000Y-61000000D03*
D18*
X135500000Y-86700000D03*
X135246000Y-61300000D03*
X135500000Y-53680000D03*
X135500000Y-91780000D03*
X135246000Y-89240000D03*
D19*
X135246000Y-94320000D03*
D18*
X135500000Y-58760000D03*
X135246000Y-56220000D03*
D20*
X143920000Y-119380000D03*
X143920000Y-124460000D03*
X143920000Y-127000000D03*
X143920000Y-129540000D03*
X149000000Y-129540000D03*
X149000000Y-127000000D03*
X149000000Y-124460000D03*
X149000000Y-119380000D03*
X134920000Y-119380000D03*
X134920000Y-124460000D03*
X134920000Y-127000000D03*
X134920000Y-129540000D03*
X140000000Y-129540000D03*
X140000000Y-127000000D03*
X140000000Y-124460000D03*
X140000000Y-119380000D03*
X125920000Y-119380000D03*
X125920000Y-124460000D03*
X125920000Y-127000000D03*
X125920000Y-129540000D03*
X131000000Y-129540000D03*
X131000000Y-127000000D03*
X131000000Y-124460000D03*
X131000000Y-119380000D03*
X116920000Y-119380000D03*
X116920000Y-124460000D03*
X116920000Y-127000000D03*
X116920000Y-129540000D03*
X122000000Y-129540000D03*
X122000000Y-127000000D03*
X122000000Y-124460000D03*
X122000000Y-119380000D03*
D21*
X152540000Y-51210000D03*
X152540000Y-56290000D03*
X147460000Y-56290000D03*
X147460000Y-51210000D03*
D22*
X150000000Y-53750000D03*
D18*
X116123000Y-89380000D03*
X116377000Y-86840000D03*
X116123000Y-84300000D03*
X116377000Y-81760000D03*
X116123000Y-79220000D03*
X116377000Y-76680000D03*
X116123000Y-74140000D03*
X116377000Y-71600000D03*
D14*
X153920000Y-114000000D03*
X156460000Y-114000000D03*
X159000000Y-114000000D03*
D23*
X124000000Y-144000000D03*
X129000000Y-144000000D03*
X134000000Y-144000000D03*
X139000000Y-144000000D03*
X144000000Y-144000000D03*
X149000000Y-144000000D03*
X154000000Y-144000000D03*
D24*
X159000000Y-144000000D03*
D25*
X159100000Y-127000000D03*
X154000000Y-127000000D03*
X154000000Y-119300000D03*
D26*
X159100000Y-119300000D03*
D27*
X145000000Y-66000000D03*
D28*
X145000000Y-68540000D03*
D29*
X144500000Y-49750000D03*
X144500000Y-50750000D03*
X144500000Y-51750000D03*
X144500000Y-55750000D03*
X144500000Y-56750000D03*
X144500000Y-57750000D03*
X145500000Y-58250000D03*
X146500000Y-58250000D03*
X147500000Y-58250000D03*
X148500000Y-58250000D03*
X149500000Y-58250000D03*
X150500000Y-58250000D03*
X151500000Y-58250000D03*
X152500000Y-58250000D03*
X153500000Y-58250000D03*
X154500000Y-58250000D03*
X155500000Y-49750000D03*
X155500000Y-50750000D03*
X155500000Y-51750000D03*
X155500000Y-52750000D03*
X155500000Y-53750000D03*
X155500000Y-54750000D03*
X155500000Y-55750000D03*
X155500000Y-56750000D03*
X155500000Y-57750000D03*
X143500000Y-55750000D03*
X142500000Y-55750000D03*
X141500000Y-55750000D03*
X140500000Y-55750000D03*
X143500000Y-51750000D03*
X142500000Y-51750000D03*
X141500000Y-51750000D03*
X140500000Y-51750000D03*
X139500000Y-51750000D03*
X138500000Y-51750000D03*
X137500000Y-51750000D03*
X139500000Y-55750000D03*
X138500000Y-55750000D03*
X137500000Y-55750000D03*
D30*
X145000000Y-66000000D02*
X145000000Y-61000000D01*
D31*
X159000000Y-144000000D02*
X159000000Y-141000000D01*
X159000000Y-141000000D02*
X155500000Y-137500000D01*
X155500000Y-130500000D02*
X159000000Y-127000000D01*
X155500000Y-137500000D02*
X155500000Y-130500000D01*
X119500000Y-123500000D02*
X119500000Y-126000000D01*
X120500000Y-127000000D02*
X122000000Y-127000000D01*
X119500000Y-126000000D02*
X120500000Y-127000000D01*
X131000000Y-127000000D02*
X129500000Y-127000000D01*
X129500000Y-127000000D02*
X128500000Y-126000000D01*
X128500000Y-122000000D02*
X121000000Y-122000000D01*
X140000000Y-127000000D02*
X138500000Y-127000000D01*
X138500000Y-127000000D02*
X137500000Y-126000000D01*
X149000000Y-127000000D02*
X147500000Y-127000000D01*
X147500000Y-127000000D02*
X146500000Y-126000000D01*
X146500000Y-126000000D02*
X146500000Y-125465198D01*
D30*
X154000000Y-127100000D02*
X153900000Y-127000000D01*
D31*
X154000000Y-127000000D02*
X154000000Y-144000000D01*
X154000000Y-127000000D02*
X154000000Y-124000000D01*
X154000000Y-124000000D02*
X152000000Y-122000000D01*
X130500000Y-122000000D02*
X130000000Y-122000000D01*
X137500000Y-122000000D02*
X130500000Y-122000000D01*
X128500000Y-126000000D02*
X128500000Y-124000000D01*
X139500000Y-122000000D02*
X139000000Y-122000000D01*
X146500000Y-122000000D02*
X139500000Y-122000000D01*
X137500000Y-126000000D02*
X137500000Y-124000000D01*
X148500000Y-122000000D02*
X148000000Y-122000000D01*
X152000000Y-122000000D02*
X148500000Y-122000000D01*
X146500000Y-125465198D02*
X146500000Y-124000000D01*
X119500000Y-123500000D02*
X119500000Y-123000000D01*
X120500000Y-122000000D02*
X121000000Y-122000000D01*
X119500000Y-123000000D02*
X120500000Y-122000000D01*
X128500000Y-124000000D02*
X128500000Y-123000000D01*
X128500000Y-123000000D02*
X129500000Y-122000000D01*
X129500000Y-122000000D02*
X128500000Y-122000000D01*
X130000000Y-122000000D02*
X129500000Y-122000000D01*
X137500000Y-124000000D02*
X137500000Y-123000000D01*
X137500000Y-123000000D02*
X138500000Y-122000000D01*
X138500000Y-122000000D02*
X137500000Y-122000000D01*
X139000000Y-122000000D02*
X138500000Y-122000000D01*
X146500000Y-124000000D02*
X146500000Y-123000000D01*
X146500000Y-123000000D02*
X147500000Y-122000000D01*
X147500000Y-122000000D02*
X146500000Y-122000000D01*
X148000000Y-122000000D02*
X147500000Y-122000000D01*
D30*
X116377000Y-76680000D02*
X118020000Y-76680000D01*
X120540000Y-74160000D02*
X121500000Y-74160000D01*
X118020000Y-76680000D02*
X120540000Y-74160000D01*
X159000000Y-119200000D02*
X159100000Y-119300000D01*
D31*
X159000000Y-114000000D02*
X159000000Y-119200000D01*
X124000000Y-144000000D02*
X124000000Y-139500000D01*
X122000000Y-137500000D02*
X122000000Y-129540000D01*
X124000000Y-139500000D02*
X122000000Y-137500000D01*
X131000000Y-135500000D02*
X131000000Y-129540000D01*
X129000000Y-139500000D02*
X131000000Y-137500000D01*
X129000000Y-144000000D02*
X129000000Y-139500000D01*
X131000000Y-137500000D02*
X131000000Y-135500000D01*
X140000000Y-133500000D02*
X140000000Y-129540000D01*
X134000000Y-139500000D02*
X140000000Y-133500000D01*
X134000000Y-144000000D02*
X134000000Y-139500000D01*
X139040000Y-139500000D02*
X149000000Y-129540000D01*
D30*
X139000000Y-139500000D02*
X139040000Y-139500000D01*
D31*
X139000000Y-144000000D02*
X139000000Y-139500000D01*
X141500000Y-107000000D02*
X141500000Y-90000000D01*
X148500000Y-114000000D02*
X141500000Y-107000000D01*
X153920000Y-114000000D02*
X148500000Y-114000000D01*
X137300000Y-61300000D02*
X135246000Y-61300000D01*
X141500000Y-65500000D02*
X137300000Y-61300000D01*
X141500000Y-76500000D02*
X141500000Y-65500000D01*
X141500000Y-86700000D02*
X141500000Y-76500000D01*
X139700000Y-86700000D02*
X141500000Y-88500000D01*
X135500000Y-86700000D02*
X139700000Y-86700000D01*
X141500000Y-88500000D02*
X141500000Y-86700000D01*
X141500000Y-90000000D02*
X141500000Y-88500000D01*
X139160000Y-74160000D02*
X141500000Y-76500000D01*
X129120000Y-74160000D02*
X139160000Y-74160000D01*
D30*
X127160000Y-74160000D02*
X129120000Y-74160000D01*
X117363000Y-72900000D02*
X117281500Y-72981500D01*
X125900000Y-72900000D02*
X117363000Y-72900000D01*
X116123000Y-74140000D02*
X117281500Y-72981500D01*
X125900000Y-72900000D02*
X127160000Y-74160000D01*
X129120000Y-79240000D02*
X127760000Y-79240000D01*
X126000000Y-81000000D02*
X126000000Y-89000000D01*
X127760000Y-79240000D02*
X126000000Y-81000000D01*
X132360000Y-102980000D02*
X132360000Y-101860000D01*
X132360000Y-101860000D02*
X126000000Y-95500000D01*
X126000000Y-89000000D02*
X126000000Y-95500000D01*
X129120000Y-76700000D02*
X126300000Y-76700000D01*
X126300000Y-76700000D02*
X124500000Y-78500000D01*
X124500000Y-90500000D02*
X124500000Y-96000000D01*
X124500000Y-87500000D02*
X124500000Y-90500000D01*
X124500000Y-78500000D02*
X124500000Y-80500000D01*
X124500000Y-80500000D02*
X124500000Y-87500000D01*
X117720000Y-79220000D02*
X116123000Y-79220000D01*
X119000000Y-80500000D02*
X117720000Y-79220000D01*
X122500000Y-80500000D02*
X119000000Y-80500000D01*
X124500000Y-78500000D02*
X122500000Y-80500000D01*
X129820000Y-101820000D02*
X124500000Y-96500000D01*
X129820000Y-102980000D02*
X129820000Y-101820000D01*
X124500000Y-96000000D02*
X124500000Y-96500000D01*
X116397000Y-71620000D02*
X116377000Y-71600000D01*
X121500000Y-71620000D02*
X116397000Y-71620000D01*
X135570000Y-53750000D02*
X135500000Y-53680000D01*
D31*
X129820000Y-110600000D02*
X129820000Y-112180000D01*
X129820000Y-112180000D02*
X125000000Y-117000000D01*
X119300000Y-117000000D02*
X116920000Y-119380000D01*
X125000000Y-117000000D02*
X119300000Y-117000000D01*
X132360000Y-110600000D02*
X132360000Y-112640000D01*
D30*
X125920000Y-119080000D02*
X125920000Y-119380000D01*
D31*
X132360000Y-112640000D02*
X125920000Y-119080000D01*
D30*
X134900000Y-119360000D02*
X134920000Y-119380000D01*
D31*
X134900000Y-110600000D02*
X134900000Y-119360000D01*
D30*
X143920000Y-118920000D02*
X143920000Y-119380000D01*
D31*
X137440000Y-112900000D02*
X143920000Y-119380000D01*
X137440000Y-110600000D02*
X137440000Y-112900000D01*
D30*
X150499999Y-71000000D02*
X157000001Y-71000000D01*
X137040000Y-103300000D02*
X137040000Y-103380000D01*
X137440000Y-101940000D02*
X129120000Y-93620000D01*
X137440000Y-102980000D02*
X137440000Y-101940000D01*
X129120000Y-84320000D02*
X129120000Y-93620000D01*
X127500000Y-83400000D02*
X127700000Y-83200000D01*
X129120000Y-81780000D02*
X127700000Y-83200000D01*
X134900000Y-101900000D02*
X127500000Y-94500000D01*
X134900000Y-102980000D02*
X134900000Y-101900000D01*
X127500000Y-94500000D02*
X127500000Y-83400000D01*
D31*
X143920000Y-132080000D02*
X143920000Y-129540000D01*
X136500000Y-145500000D02*
X136500000Y-139500000D01*
X136500000Y-139500000D02*
X143920000Y-132080000D01*
X137500000Y-146500000D02*
X136500000Y-145500000D01*
X144000000Y-145500000D02*
X143000000Y-146500000D01*
X143000000Y-146500000D02*
X137500000Y-146500000D01*
X144000000Y-144000000D02*
X144000000Y-145500000D01*
X132500000Y-146500000D02*
X137500000Y-146500000D01*
X131500000Y-145500000D02*
X132500000Y-146500000D01*
X131500000Y-139500000D02*
X131500000Y-145500000D01*
X134920000Y-136080000D02*
X131500000Y-139500000D01*
X134920000Y-129540000D02*
X134920000Y-136080000D01*
X125920000Y-129540000D02*
X125920000Y-130420000D01*
X132500000Y-146500000D02*
X127500000Y-146500000D01*
X127500000Y-146500000D02*
X126500000Y-145500000D01*
X126500000Y-131000000D02*
X125920000Y-130420000D01*
X126500000Y-145500000D02*
X126500000Y-131000000D01*
X118500000Y-131120000D02*
X116920000Y-129540000D01*
X118500000Y-137500000D02*
X118500000Y-131120000D01*
X120500000Y-139500000D02*
X118500000Y-137500000D01*
X120500000Y-145000000D02*
X120500000Y-139500000D01*
X122000000Y-146500000D02*
X120500000Y-145000000D01*
X127500000Y-146500000D02*
X122000000Y-146500000D01*
M02*
