G04 #@! TF.GenerationSoftware,KiCad,Pcbnew,(5.1.7)-1*
G04 #@! TF.CreationDate,2021-02-12T16:01:14-08:00*
G04 #@! TF.ProjectId,tx,74782e6b-6963-4616-945f-706362585858,rev?*
G04 #@! TF.SameCoordinates,Original*
G04 #@! TF.FileFunction,Copper,L1,Top*
G04 #@! TF.FilePolarity,Positive*
%FSLAX46Y46*%
G04 Gerber Fmt 4.6, Leading zero omitted, Abs format (unit mm)*
G04 Created by KiCad (PCBNEW (5.1.7)-1) date 2021-02-12 16:01:14*
%MOMM*%
%LPD*%
G01*
G04 APERTURE LIST*
G04 #@! TA.AperFunction,ComponentPad*
%ADD10C,1.498600*%
G04 #@! TD*
G04 #@! TA.AperFunction,ComponentPad*
%ADD11R,2.100000X2.100000*%
G04 #@! TD*
G04 #@! TA.AperFunction,ComponentPad*
%ADD12C,2.100000*%
G04 #@! TD*
G04 #@! TA.AperFunction,ComponentPad*
%ADD13R,1.524000X1.524000*%
G04 #@! TD*
G04 #@! TA.AperFunction,ComponentPad*
%ADD14C,1.524000*%
G04 #@! TD*
G04 #@! TA.AperFunction,ComponentPad*
%ADD15C,1.270000*%
G04 #@! TD*
G04 #@! TA.AperFunction,ComponentPad*
%ADD16R,1.498600X1.498600*%
G04 #@! TD*
G04 #@! TA.AperFunction,ComponentPad*
%ADD17O,2.400000X2.400000*%
G04 #@! TD*
G04 #@! TA.AperFunction,ComponentPad*
%ADD18C,2.400000*%
G04 #@! TD*
G04 #@! TA.AperFunction,ComponentPad*
%ADD19C,1.879600*%
G04 #@! TD*
G04 #@! TA.AperFunction,ComponentPad*
%ADD20R,1.879600X1.879600*%
G04 #@! TD*
G04 #@! TA.AperFunction,ComponentPad*
%ADD21C,2.006600*%
G04 #@! TD*
G04 #@! TA.AperFunction,ComponentPad*
%ADD22C,2.209800*%
G04 #@! TD*
G04 #@! TA.AperFunction,ComponentPad*
%ADD23R,1.210000X1.210000*%
G04 #@! TD*
G04 #@! TA.AperFunction,ComponentPad*
%ADD24C,1.210000*%
G04 #@! TD*
G04 #@! TA.AperFunction,ComponentPad*
%ADD25O,2.200000X2.200000*%
G04 #@! TD*
G04 #@! TA.AperFunction,ComponentPad*
%ADD26R,2.200000X2.200000*%
G04 #@! TD*
G04 #@! TA.AperFunction,ComponentPad*
%ADD27C,1.800000*%
G04 #@! TD*
G04 #@! TA.AperFunction,ComponentPad*
%ADD28R,1.800000X1.800000*%
G04 #@! TD*
G04 #@! TA.AperFunction,ComponentPad*
%ADD29R,2.400000X2.400000*%
G04 #@! TD*
G04 #@! TA.AperFunction,ViaPad*
%ADD30C,0.600000*%
G04 #@! TD*
G04 #@! TA.AperFunction,Conductor*
%ADD31C,0.250000*%
G04 #@! TD*
G04 #@! TA.AperFunction,Conductor*
%ADD32C,0.500000*%
G04 #@! TD*
G04 #@! TA.AperFunction,Conductor*
%ADD33C,0.152400*%
G04 #@! TD*
G04 APERTURE END LIST*
D10*
X158000000Y-124000000D03*
X155460000Y-124000000D03*
X152920000Y-124000000D03*
D11*
X163000000Y-142250000D03*
D12*
X158000000Y-142250000D03*
X153000000Y-142250000D03*
X148000000Y-142250000D03*
X143000000Y-142250000D03*
X138000000Y-142250000D03*
X133000000Y-142250000D03*
X128000000Y-142250000D03*
D13*
X121760000Y-66620000D03*
D14*
X124300000Y-66620000D03*
X126840000Y-66620000D03*
X129380000Y-66620000D03*
X131920000Y-66620000D03*
X134460000Y-66620000D03*
X137000000Y-66620000D03*
X139540000Y-66620000D03*
X142080000Y-66620000D03*
X142080000Y-59000000D03*
X139540000Y-59000000D03*
X137000000Y-59000000D03*
X134460000Y-59000000D03*
X131920000Y-59000000D03*
X129380000Y-59000000D03*
X126840000Y-59000000D03*
X124300000Y-59000000D03*
X121760000Y-59000000D03*
D15*
X145000000Y-73000000D03*
X145000000Y-75540000D03*
X145000000Y-78080000D03*
X152620000Y-78080000D03*
X152620000Y-75540000D03*
X152620000Y-73000000D03*
X156000000Y-73000000D03*
X156000000Y-75540000D03*
X156000000Y-78080000D03*
X163620000Y-78080000D03*
X163620000Y-75540000D03*
X163620000Y-73000000D03*
X123000000Y-72920000D03*
X123000000Y-75460000D03*
X123000000Y-78000000D03*
X130620000Y-78000000D03*
X130620000Y-75460000D03*
X130620000Y-72920000D03*
X134000000Y-73000000D03*
X134000000Y-75540000D03*
X134000000Y-78080000D03*
X141620000Y-78080000D03*
X141620000Y-75540000D03*
X141620000Y-73000000D03*
D16*
X154499999Y-64499999D03*
D10*
X154499999Y-69000000D03*
X161000001Y-69000000D03*
X161000001Y-64499999D03*
D17*
X139000000Y-136000000D03*
D18*
X139000000Y-120760000D03*
D17*
X133000000Y-136000000D03*
D18*
X133000000Y-120760000D03*
D17*
X127000000Y-136000000D03*
D18*
X127000000Y-120760000D03*
D17*
X121000000Y-136000000D03*
D18*
X121000000Y-120760000D03*
D17*
X146000000Y-107740000D03*
D18*
X146000000Y-92500000D03*
D19*
X154000000Y-60000000D03*
X159080000Y-60000000D03*
D20*
X161620000Y-60254000D03*
D19*
X156540000Y-60254000D03*
D21*
X154000000Y-51750000D03*
D22*
X151460000Y-49210000D03*
X151460000Y-54290000D03*
X156540000Y-54290000D03*
X156540000Y-49210000D03*
D19*
X126840000Y-51000000D03*
X129380000Y-51254000D03*
X131920000Y-51000000D03*
X134460000Y-51254000D03*
X137000000Y-51000000D03*
X139540000Y-51254000D03*
X142080000Y-51000000D03*
X144620000Y-51254000D03*
D23*
X158000000Y-128300000D03*
D24*
X152900000Y-128300000D03*
X152900000Y-136000000D03*
X158000000Y-136000000D03*
D25*
X145000000Y-125840000D03*
D26*
X145000000Y-136000000D03*
D27*
X149000000Y-66600000D03*
D28*
X149000000Y-64060000D03*
D18*
X158000000Y-104500000D03*
D29*
X158000000Y-112000000D03*
D18*
X158000000Y-86500000D03*
D29*
X158000000Y-94000000D03*
D18*
X127000000Y-104500000D03*
D29*
X127000000Y-112000000D03*
D18*
X127000000Y-86500000D03*
D29*
X127000000Y-94000000D03*
D30*
X148500000Y-48250000D03*
X148500000Y-49500000D03*
X148500000Y-50750000D03*
X148500000Y-52000000D03*
X148500000Y-53250000D03*
X148500000Y-54500000D03*
X148500000Y-55750000D03*
X149750000Y-56250000D03*
X151000000Y-56250000D03*
X152250000Y-56250000D03*
X155750000Y-56250000D03*
X157000000Y-56250000D03*
X158250000Y-56250000D03*
X159500000Y-48250000D03*
X159500000Y-49500000D03*
X159500000Y-50750000D03*
X159500000Y-52000000D03*
X159500000Y-53250000D03*
X159500000Y-54500000D03*
X159500000Y-55750000D03*
X152250000Y-57500000D03*
X155750000Y-57500000D03*
D31*
X154000000Y-86500000D02*
X158000000Y-86500000D01*
X123500000Y-90000000D02*
X127000000Y-86500000D01*
X123500000Y-101000000D02*
X123500000Y-90000000D01*
X127000000Y-104500000D02*
X123500000Y-101000000D01*
X129000000Y-86500000D02*
X127000000Y-86500000D01*
X130500000Y-86500000D02*
X129000000Y-86500000D01*
X132540000Y-84460000D02*
X130500000Y-86500000D01*
X132540000Y-77000000D02*
X132540000Y-84460000D01*
X134000000Y-75540000D02*
X132540000Y-77000000D01*
X155000000Y-89500000D02*
X158000000Y-86500000D01*
X145000000Y-75540000D02*
X147460000Y-75540000D01*
X149000000Y-77080000D02*
X149000000Y-81500000D01*
X147460000Y-75540000D02*
X149000000Y-77080000D01*
X123000000Y-75460000D02*
X125460000Y-75460000D01*
X127000000Y-77000000D02*
X127000000Y-86500000D01*
X125460000Y-75460000D02*
X127000000Y-77000000D01*
X156000000Y-75540000D02*
X157040000Y-75540000D01*
X158000000Y-76500000D02*
X158000000Y-86500000D01*
X157040000Y-75540000D02*
X158000000Y-76500000D01*
X149000000Y-81500000D02*
X149000000Y-84500000D01*
X149000000Y-84500000D02*
X151000000Y-86500000D01*
X151000000Y-86500000D02*
X154500000Y-86500000D01*
X158000000Y-104500000D02*
X154500000Y-101000000D01*
X154500000Y-101000000D02*
X154500000Y-90000000D01*
X154500000Y-90000000D02*
X155000000Y-89500000D01*
X134000000Y-73000000D02*
X135000000Y-73000000D01*
X134000000Y-73000000D02*
X136500000Y-73000000D01*
X130000000Y-122500000D02*
X130000000Y-120000000D01*
X128500000Y-124000000D02*
X130000000Y-122500000D01*
X124240000Y-124000000D02*
X128500000Y-124000000D01*
X121000000Y-120760000D02*
X124240000Y-124000000D01*
X137750000Y-112250000D02*
X137250000Y-112750000D01*
X130000000Y-120000000D02*
X137250000Y-112750000D01*
X136500000Y-73000000D02*
X137750000Y-74250000D01*
X137750000Y-74250000D02*
X137750000Y-94000000D01*
X137750000Y-95750000D02*
X137750000Y-112250000D01*
X136000000Y-94000000D02*
X137750000Y-95750000D01*
X137750000Y-94000000D02*
X137750000Y-95750000D01*
X127000000Y-94000000D02*
X136000000Y-94000000D01*
X127000000Y-120760000D02*
X127000000Y-112000000D01*
X121330000Y-72920000D02*
X123000000Y-72920000D01*
X120000000Y-110000000D02*
X120000000Y-74250000D01*
X120000000Y-74250000D02*
X121330000Y-72920000D01*
X122000000Y-112000000D02*
X120000000Y-110000000D01*
X127000000Y-112000000D02*
X122000000Y-112000000D01*
X145000000Y-120000000D02*
X159000000Y-120000000D01*
X141000000Y-124000000D02*
X145000000Y-120000000D01*
X136240000Y-124000000D02*
X141000000Y-124000000D01*
X133000000Y-120760000D02*
X136240000Y-124000000D01*
X158000000Y-73000000D02*
X156000000Y-73000000D01*
X159000000Y-120000000D02*
X161500000Y-117500000D01*
X161500000Y-74750000D02*
X161500000Y-94000000D01*
X159750000Y-73000000D02*
X161500000Y-74750000D01*
X156000000Y-73000000D02*
X159750000Y-73000000D01*
X160000000Y-94000000D02*
X161500000Y-95500000D01*
X161500000Y-95500000D02*
X161500000Y-94000000D01*
X161500000Y-117500000D02*
X161500000Y-95500000D01*
X158000000Y-94000000D02*
X160000000Y-94000000D01*
X158000000Y-112000000D02*
X152000000Y-112000000D01*
X139000000Y-118000000D02*
X139000000Y-120760000D01*
X145000000Y-112000000D02*
X139000000Y-118000000D01*
X147000000Y-112000000D02*
X145000000Y-112000000D01*
X145000000Y-73000000D02*
X143500000Y-74500000D01*
X143500000Y-74500000D02*
X143500000Y-83000000D01*
X143500000Y-83000000D02*
X145000000Y-84500000D01*
X145000000Y-84500000D02*
X149000000Y-88500000D01*
X149000000Y-112000000D02*
X147000000Y-112000000D01*
X152000000Y-112000000D02*
X149000000Y-112000000D01*
X149000000Y-103000000D02*
X149000000Y-101500000D01*
X158000000Y-112000000D02*
X149000000Y-103000000D01*
X149000000Y-88500000D02*
X149000000Y-101500000D01*
X142200000Y-66500000D02*
X142080000Y-66620000D01*
X142100000Y-66600000D02*
X142080000Y-66620000D01*
X149000000Y-66600000D02*
X142100000Y-66600000D01*
D32*
X158000000Y-128300000D02*
X158000000Y-127500000D01*
X158000000Y-127500000D02*
X157000000Y-126500000D01*
X157000000Y-126500000D02*
X154000000Y-126500000D01*
X152920000Y-125420000D02*
X152920000Y-124000000D01*
X154000000Y-126500000D02*
X152920000Y-125420000D01*
D31*
X161000001Y-64499999D02*
X154499999Y-64499999D01*
X131920000Y-51000000D02*
X131920000Y-51920000D01*
D32*
X152900000Y-137150000D02*
X158000000Y-142250000D01*
X152900000Y-136000000D02*
X152900000Y-137150000D01*
X158000000Y-137250000D02*
X163000000Y-142250000D01*
X158000000Y-136000000D02*
X158000000Y-137250000D01*
D31*
X143000000Y-140000000D02*
X139000000Y-136000000D01*
X143000000Y-142250000D02*
X143000000Y-140000000D01*
X133000000Y-137250000D02*
X133000000Y-136000000D01*
X138000000Y-142250000D02*
X133000000Y-137250000D01*
X127000000Y-136250000D02*
X127000000Y-136000000D01*
X133000000Y-142250000D02*
X127000000Y-136250000D01*
D33*
X121000000Y-136250000D02*
X121000000Y-136000000D01*
D31*
X121750000Y-136000000D02*
X121000000Y-136000000D01*
X128000000Y-142250000D02*
X121750000Y-136000000D01*
X166000000Y-76000000D02*
X166000000Y-75380000D01*
D32*
X166000000Y-120000000D02*
X166000000Y-76000000D01*
X131920000Y-57920000D02*
X131920000Y-59000000D01*
X129380000Y-55380000D02*
X131920000Y-57920000D01*
X129380000Y-51254000D02*
X129380000Y-55380000D01*
X129380000Y-49380000D02*
X129000000Y-49000000D01*
X129380000Y-51254000D02*
X129380000Y-49380000D01*
D31*
X130620000Y-71120000D02*
X130500000Y-71000000D01*
D32*
X130620000Y-72920000D02*
X130620000Y-71120000D01*
X122000000Y-71000000D02*
X130500000Y-71000000D01*
D31*
X141620000Y-71120000D02*
X141500000Y-71000000D01*
D32*
X141620000Y-73000000D02*
X141620000Y-71120000D01*
X130500000Y-71000000D02*
X141500000Y-71000000D01*
D31*
X152620000Y-71120000D02*
X152500000Y-71000000D01*
D32*
X152620000Y-73000000D02*
X152620000Y-71120000D01*
X152500000Y-71000000D02*
X163000000Y-71000000D01*
X141500000Y-71000000D02*
X152500000Y-71000000D01*
X119000000Y-68000000D02*
X122000000Y-71000000D01*
X119000000Y-57500000D02*
X119000000Y-68000000D01*
X129000000Y-49000000D02*
X126000000Y-49000000D01*
X166000000Y-71000000D02*
X166000000Y-76000000D01*
X166000000Y-60000000D02*
X166000000Y-71000000D01*
D31*
X163620000Y-71120000D02*
X163500000Y-71000000D01*
D32*
X163620000Y-73000000D02*
X163620000Y-71120000D01*
X163500000Y-71000000D02*
X166000000Y-71000000D01*
X163000000Y-71000000D02*
X163500000Y-71000000D01*
X126000000Y-49000000D02*
X125000000Y-50000000D01*
X166000000Y-60000000D02*
X166000000Y-59000000D01*
X156540000Y-60254000D02*
X156540000Y-58460000D01*
X125000000Y-50000000D02*
X125000000Y-53000000D01*
X125000000Y-53000000D02*
X123000000Y-55000000D01*
X123000000Y-55000000D02*
X121000000Y-55000000D01*
X119000000Y-57000000D02*
X121000000Y-55000000D01*
X119000000Y-57000000D02*
X119000000Y-57500000D01*
X164500000Y-57500000D02*
X157500000Y-57500000D01*
X156540000Y-58460000D02*
X157500000Y-57500000D01*
X166000000Y-59000000D02*
X164500000Y-57500000D01*
X166000000Y-120000000D02*
X166000000Y-122500000D01*
X166000000Y-122500000D02*
X164500000Y-124000000D01*
X164500000Y-124000000D02*
X158000000Y-124000000D01*
D31*
X126840000Y-54840000D02*
X126840000Y-51000000D01*
X120000000Y-60500000D02*
X120000000Y-57500000D01*
X121500000Y-56000000D02*
X125680000Y-56000000D01*
X122000000Y-62500000D02*
X120000000Y-60500000D01*
X125680000Y-56000000D02*
X126840000Y-54840000D01*
X126500000Y-62500000D02*
X122000000Y-62500000D01*
X120000000Y-57500000D02*
X121500000Y-56000000D01*
X129380000Y-65380000D02*
X126500000Y-62500000D01*
X129380000Y-66620000D02*
X129380000Y-65380000D01*
X134460000Y-51254000D02*
X134460000Y-59000000D01*
X137000000Y-51000000D02*
X137000000Y-59000000D01*
X159080000Y-61920000D02*
X159080000Y-60000000D01*
X158500000Y-62500000D02*
X159080000Y-61920000D01*
X139540000Y-64460000D02*
X141500000Y-62500000D01*
X139540000Y-66620000D02*
X139540000Y-64460000D01*
X141500000Y-62500000D02*
X158500000Y-62500000D01*
X154499999Y-69000000D02*
X161000001Y-69000000D01*
X134460000Y-66620000D02*
X134460000Y-67960000D01*
X135500000Y-69000000D02*
X137000000Y-69000000D01*
X134460000Y-67960000D02*
X135500000Y-69000000D01*
X154499999Y-69000000D02*
X137000000Y-69000000D01*
X148000000Y-139000000D02*
X145000000Y-136000000D01*
X148000000Y-142250000D02*
X148000000Y-139000000D01*
M02*
